<?xml version="1.0" encoding="utf-8"?>
<!-- Generator: Adobe Illustrator 16.0.0, SVG Export Plug-In . SVG Version: 6.00 Build 0)  -->
<!DOCTYPE svg PUBLIC "-//W3C//DTD SVG 1.1//EN" "http://www.w3.org/Graphics/SVG/1.1/DTD/svg11.dtd">
<svg version="1.1" id="Layer_1" xmlns="http://www.w3.org/2000/svg" xmlns:xlink="http://www.w3.org/1999/xlink" x="0px" y="0px"
	 width="1500px" height="1500px" viewBox="0 0 1500 1500" enable-background="new 0 0 1500 1500" xml:space="preserve">
<circle stroke="#000000" stroke-miterlimit="10" cx="750" cy="750" r="730"/>
<path fill="#FFFFFF" d="M347.534,622.855c-3.44-30.161,24.136-58.891,54.324-57.019c14.393-0.441,27.629,6.962,37.784,16.622
	c94.805,94.144,188.894,189.002,283.421,283.394c8.644,9.411,18.191,17.887,27.797,26.31
	c98.215-98.055,196.377-196.214,294.428-294.431c13.927-14.035,28.704-31.455,50.169-31.812c27.326-3.083,54.819,19.016,56.8,46.617
	c2.258,16.842-3.136,34.483-15.74,46.15c-115.498,115.636-231.106,231.165-346.688,346.716
	c-19.871,22.072-57.543,22.733-78.103,1.266C600.659,895.766,489.728,784.668,378.687,673.684
	C364.321,659.869,347.095,644.65,347.534,622.855z"/>
</svg>
